<svg xmlns="http://www.w3.org/2000/svg" width="15" height="20" viewBox="0 0 15 20">
    <path fill="#d3cece" fill-rule="nonzero" d="M1.53 1.617v16.745l-.01.02h5.165c.423 0 .765.363.765.81 0 .446-.342.808-.765.808H.818a.728.728 0 0 1-.293-.061A.806.806 0 0 1 0 19.17V.84C0 .415.312.066.708.035A.727.727 0 0 1 .93 0h5.867c.423 0 .766.362.766.809 0 .446-.343.808-.766.808H1.531zM4.287 9.89c0-.447.342-.809.765-.809h7.03l-2.408-2.07a.84.84 0 0 1-.112-1.137.738.738 0 0 1 1.077-.119l4.158 3.58c.082.173.15.353.204.539a3.397 3.397 0 0 1-.29.625l-4.082 3.504a.732.732 0 0 1-1.072-.118.84.84 0 0 1 .112-1.138l2.409-2.07H5.05c-.415 0-.754-.349-.765-.787z"/>
</svg>
